<svg width="10" height="34" viewBox="0 0 10 34" fill="none" xmlns="http://www.w3.org/2000/svg">
<g clip-path="url(#clip0_129_305)">
<mask id="mask0_129_305" style="mask-type:luminance" maskUnits="userSpaceOnUse" x="0" y="0" width="10" height="34">
<path d="M10 0H0V34H10V0Z" fill="white"/>
</mask>
<g mask="url(#mask0_129_305)">
<path d="M9.771 5.62895C9.69099 6.8688 9.16792 8.03857 8.29723 8.92487C7.42653 9.81117 6.26623 10.3549 5.02799 10.4569C3.7655 10.4007 2.56975 9.87408 1.67606 8.98057C0.782363 8.08706 0.255445 6.89143 0.198991 5.62895C0.190933 4.99256 0.310337 4.361 0.550164 3.77148C0.789991 3.18196 1.14538 2.6464 1.59541 2.19637C2.04544 1.74634 2.581 1.39094 3.17053 1.15112C3.76005 0.91129 4.39161 0.791885 5.02799 0.799943C6.27314 0.8833 7.44426 1.42127 8.31872 2.31159C9.19318 3.2019 9.71003 4.3825 9.771 5.62895Z" fill="#706C96"/>
<path d="M5.02905 26.296C3.75972 26.296 2.54238 25.7917 1.64483 24.8942C0.74728 23.9966 0.243042 22.7793 0.243042 21.51C0.243042 20.2406 0.74728 19.0233 1.64483 18.1258C2.54238 17.2282 3.75972 16.724 5.02905 16.724C5.66295 16.7104 6.29293 16.8267 6.88022 17.0656C7.4675 17.3046 7.99967 17.6613 8.44396 18.1136C8.88826 18.566 9.23529 19.1045 9.46369 19.696C9.69209 20.2874 9.79702 20.9194 9.77204 21.553C9.77204 26.468 7.53004 30.434 3.04604 33.366L1.66605 32.331C5.02905 29.917 6.66605 27.761 6.66605 25.777L5.02905 26.296Z" fill="#F4AB08"/>
</g>
</g>
<defs>
<clipPath id="clip0_129_305">
<rect width="10" height="34" fill="white"/>
</clipPath>
</defs>
</svg>
