<svg width="40" height="110" viewBox="0 0 40 110" fill="none" xmlns="http://www.w3.org/2000/svg">
<path fill-rule="evenodd" clip-rule="evenodd" d="M11.31 3.07701C7.557 5.48101 4 12.245 4 16.978C4 22.108 8.237 28.452 13.302 30.904C20.716 34.493 25.917 33.276 31.802 26.572C41.081 16.004 33.416 0.959013 18.782 1.01701C16.202 1.02701 13.232 1.84601 11.31 3.07701Z" fill="#706C96"/>
<path fill-rule="evenodd" clip-rule="evenodd" d="M11.6792 55.824C6.6122 58.477 3.3992 65.063 4.0942 71.376C5.1302 80.788 10.6512 85.415 19.9402 84.658L25.6852 84.191L25.0622 86.845C24.0212 91.275 20.8402 95.71 14.8732 101.048C9.5202 105.837 9.3032 106.208 11.0832 107.525C13.5452 109.347 15.5562 108.27 22.3152 101.51C34.5812 89.245 39.3332 68.665 31.9312 59.869C27.0342 54.049 18.3742 52.319 11.6792 55.824Z" fill="#F4AB08"/>
</svg>
